<svg xmlns="http://www.w3.org/2000/svg" viewBox="0 0 640 400" role="img" aria-label="Phòng Lab A101">
  <rect width="640" height="400" fill="#eef2ff"/>
  <rect x="58" y="70" width="524" height="260" rx="18" fill="#ffffff"/>
  <rect x="92" y="104" width="456" height="70" rx="10" fill="#17212b"/>
  <rect x="114" y="126" width="148" height="26" rx="8" fill="#e8f3f1"/>
  <rect x="294" y="126" width="94" height="26" rx="8" fill="#e8f3f1"/>
  <rect x="420" y="126" width="78" height="26" rx="8" fill="#e8f3f1"/>
  <g fill="#11615a">
    <rect x="98" y="226" width="104" height="56" rx="10"/>
    <rect x="268" y="226" width="104" height="56" rx="10"/>
    <rect x="438" y="226" width="104" height="56" rx="10"/>
  </g>
  <g stroke="#667085" stroke-width="12" stroke-linecap="round">
    <path d="M128 282v34M172 282v34M298 282v34M342 282v34M468 282v34M512 282v34"/>
  </g>
</svg>
